<?xml version="1.0" standalone="no"?>
<!DOCTYPE svg PUBLIC "-//W3C//DTD SVG 20010904//EN"
 "http://www.w3.org/TR/2001/REC-SVG-20010904/DTD/svg10.dtd">
<svg version="1.0" xmlns="http://www.w3.org/2000/svg"
 width="1024.000000pt" height="1024.000000pt" viewBox="0 0 1024.000000 1024.000000"
 preserveAspectRatio="xMidYMid meet">

<g transform="translate(0.000000,1024.000000) scale(0.100000,-0.100000)"
fill="#000000" stroke="none">
<path d="M5884 8296 c-61 -28 -104 -100 -104 -176 0 -28 28 -37 190 -61 74
-11 191 -31 260 -45 69 -13 128 -24 131 -24 4 0 10 29 14 64 8 79 -14 139 -66
178 -73 55 -353 97 -425 64z m194 -107 c3 -25 0 -27 -51 -33 -34 -5 -61 -14
-72 -26 -24 -26 -45 -14 -45 25 0 53 21 66 99 63 63 -3 66 -4 69 -29z"/>
<path d="M5676 7949 c-2 -13 -12 -78 -21 -144 -9 -66 -22 -157 -29 -203 -7
-46 -10 -85 -6 -87 4 -2 44 -9 91 -15 90 -11 586 -94 632 -105 26 -7 27 -5 27
29 0 19 5 69 11 111 11 70 13 76 33 71 11 -3 45 -8 75 -12 l53 -7 -5 -36 c-26
-167 -97 -866 -97 -955 0 -41 -4 -50 -36 -78 -70 -62 -79 -118 -30 -183 46
-60 112 -69 184 -25 39 24 72 75 72 113 0 15 -9 45 -20 67 -20 39 -20 39 0
182 11 79 31 242 45 363 14 121 37 314 50 428 22 185 23 212 11 242 -23 54
-63 69 -190 71 l-109 3 -1 47 c-1 44 -3 48 -31 56 -96 26 -403 68 -612 84 -91
6 -92 6 -97 -17z m199 -105 c20 -5 20 -5 2 -127 -24 -156 -21 -147 -59 -147
-59 0 -62 7 -44 96 8 44 18 103 22 132 6 48 9 52 33 52 14 0 35 -3 46 -6z"/>
<path d="M4782 7713 l-233 -3 6 -88 c3 -48 8 -102 11 -119 l5 -33 82 -2 c45 0
242 -2 438 -3 l356 -3 7 82 c3 44 11 98 17 119 6 22 9 41 6 43 -6 7 -442 11
-695 7z"/>
<path d="M4379 7658 c-25 -29 -72 -84 -104 -123 -32 -38 -124 -137 -204 -220
-184 -188 -383 -417 -461 -530 l-28 -40 387 3 c401 2 431 6 453 45 14 27 25
917 11 917 -5 0 -29 -24 -54 -52z"/>
<path d="M4080 7584 c-291 -63 -459 -146 -634 -314 -180 -173 -284 -365 -326
-602 -6 -30 -13 -581 -16 -1288 -5 -1107 -4 -1245 10 -1333 43 -260 196 -518
399 -670 124 -93 242 -150 412 -198 77 -22 97 -23 613 -29 352 -3 532 -2 532
5 -1 22 -48 247 -53 252 -4 3 -226 6 -494 7 -471 2 -491 2 -567 24 -254 71
-426 226 -527 474 -61 150 -59 81 -59 1431 0 1206 1 1241 20 1317 68 267 185
434 405 578 145 95 414 367 358 361 -5 0 -37 -7 -73 -15z"/>
<path d="M5565 7334 c-4 -31 -5 -57 -3 -58 2 -2 466 -77 749 -121 24 -4 26 -1
36 63 5 37 9 69 7 71 -4 5 -181 37 -334 60 -157 24 -320 41 -395 41 l-53 0 -7
-56z"/>
<path d="M6830 7183 c-6 -49 -18 -120 -26 -160 -15 -69 -14 -73 7 -115 12 -24
36 -83 53 -133 l31 -90 3 -1275 c3 -1323 3 -1335 -38 -1447 -59 -160 -145
-283 -262 -377 -179 -143 -302 -177 -637 -175 l-173 1 -29 -49 c-16 -26 -51
-82 -78 -123 -28 -41 -50 -78 -50 -82 -1 -12 477 -9 587 3 108 12 260 58 373
114 142 70 258 170 360 310 108 150 150 235 191 390 21 80 21 84 20 1377 -2
1381 -1 1354 -49 1498 -23 70 -97 223 -134 277 -37 54 -118 143 -129 143 -5 0
-13 -39 -20 -87z"/>
<path d="M5536 7133 c-2 -16 -12 -104 -21 -198 -9 -93 -30 -251 -45 -350 -16
-99 -36 -250 -45 -335 -10 -85 -30 -225 -46 -311 -15 -85 -37 -225 -48 -310
-11 -85 -23 -175 -27 -200 l-6 -46 33 -6 c19 -4 88 -13 154 -22 66 -9 230 -32
363 -51 134 -20 246 -34 248 -31 2 2 9 48 14 103 5 54 16 149 25 209 9 61 25
187 36 280 11 94 30 249 44 345 13 96 31 236 40 310 20 171 64 491 69 506 5
15 -53 27 -299 64 -168 26 -473 70 -481 70 -1 0 -5 -12 -8 -27z m236 -112 c10
-8 -6 -162 -42 -411 -16 -113 -35 -257 -44 -320 -8 -63 -26 -189 -40 -280 -34
-218 -77 -490 -81 -515 -4 -17 -11 -20 -55 -17 -42 3 -50 7 -46 20 8 24 33
195 41 272 4 36 17 121 30 190 13 69 31 197 40 285 9 88 23 192 30 230 16 77
50 343 61 475 3 47 8 88 10 91 4 7 84 -10 96 -20z"/>
<path d="M4753 7051 c-35 -4 -57 -13 -67 -26 -18 -23 -21 -78 -6 -106 23 -42
52 -46 356 -52 l290 -6 15 93 14 93 -125 7 c-149 7 -404 6 -477 -3z"/>
<path d="M3749 6579 c-51 -19 -53 -97 -5 -145 l34 -34 748 6 749 7 6 51 c3 28
9 68 13 89 l7 37 -763 -1 c-457 0 -774 -5 -789 -10z"/>
<path d="M3743 6105 c-18 -18 -33 -43 -33 -55 0 -32 38 -89 63 -95 12 -3 340
-6 728 -8 l707 -2 6 75 c4 41 8 84 9 95 2 20 -4 20 -723 21 l-725 1 -32 -32z"/>
<path d="M6364 6035 l-9 -85 78 0 c88 0 134 15 165 55 28 35 28 57 -2 91 -22
26 -25 27 -55 14 -30 -12 -115 -10 -152 4 -12 6 -17 -8 -25 -79z"/>
<path d="M3740 5668 c-40 -40 -41 -86 -1 -130 l29 -33 689 0 689 0 11 80 c6
44 14 87 18 96 6 15 -54 16 -700 17 l-705 0 -30 -30z"/>
<path d="M6314 5693 c-6 -4 -14 -50 -18 -101 l-7 -94 131 4 132 3 34 37 c43
47 43 69 0 116 l-34 37 -114 3 c-62 1 -118 -1 -124 -5z"/>
<path d="M5261 5251 c-6 -11 -11 -42 -11 -70 l0 -50 43 -6 c23 -3 101 -12 172
-21 72 -8 183 -24 248 -35 64 -11 168 -26 230 -34 61 -8 119 -18 128 -20 14
-5 19 5 28 45 19 88 17 96 -31 108 -60 15 -439 68 -578 81 -63 6 -138 14 -167
17 -45 5 -53 3 -62 -15z"/>
<path d="M3780 5243 c-24 -9 -51 -36 -66 -66 -13 -24 -13 -32 2 -63 9 -19 26
-40 38 -46 14 -8 211 -11 671 -12 l650 -1 0 75 c0 41 4 85 8 98 l8 22 -648 -1
c-356 0 -655 -3 -663 -6z"/>
<path d="M6270 5168 c0 -40 -3 -83 -6 -95 l-6 -23 144 0 c157 0 175 5 203 60
22 43 19 59 -21 96 l-35 34 -140 0 -139 0 0 -72z"/>
<path d="M5255 4998 c-2 -7 -25 -69 -49 -138 -68 -191 -133 -354 -188 -471
l-50 -107 26 -66 c63 -156 198 -787 236 -1096 23 -188 32 -213 79 -208 19 2
34 19 63 68 21 36 45 88 54 115 9 28 23 57 30 66 8 8 31 48 51 88 104 199 245
445 273 476 10 11 28 42 39 68 20 45 57 99 109 154 12 13 31 41 42 62 10 21
42 58 70 81 49 41 51 46 46 79 -10 62 -35 491 -36 606 0 61 -4 115 -8 121 -13
20 -486 96 -684 109 -78 5 -99 4 -103 -7z m172 -96 l22 -7 -28 -80 c-48 -137
-116 -315 -168 -440 -61 -147 -66 -173 -48 -283 17 -101 19 -142 6 -142 -14 0
-29 47 -51 152 -11 54 -29 116 -40 139 l-21 40 45 97 c24 53 61 140 81 192 62
159 127 325 132 333 5 8 39 8 70 -1z m176 -513 c108 -58 90 -225 -27 -255 -14
-3 -26 -9 -26 -12 0 -64 -112 -754 -137 -844 -15 -56 -17 -58 -49 -58 -19 0
-34 1 -34 3 0 20 36 264 54 372 14 77 36 230 51 339 l25 199 -24 26 c-13 14
-29 36 -35 48 -28 55 0 136 61 173 37 22 107 27 141 9z"/>
<path d="M3757 4785 c-11 -5 -29 -28 -40 -49 -18 -35 -19 -42 -6 -64 8 -14 26
-34 40 -45 25 -18 49 -19 608 -21 510 -1 581 1 581 14 0 8 18 48 41 89 22 40
37 76 34 79 -11 11 -1237 8 -1258 -3z"/>
<path d="M6203 4723 c4 -38 7 -80 7 -95 l0 -28 155 0 c175 0 214 9 239 59 23
44 20 59 -18 97 l-34 34 -177 0 -178 0 6 -67z"/>
<path d="M3804 4365 c-11 -8 -15 -78 -19 -337 -5 -290 -4 -328 10 -342 14 -14
57 -16 345 -16 l330 0 14 23 c10 16 15 83 20 266 l6 243 -32 -27 c-52 -43
-113 -102 -252 -244 l-129 -132 -86 83 c-47 46 -104 99 -126 117 -23 19 -35
35 -28 38 6 2 32 20 57 39 54 41 59 40 134 -40 29 -31 56 -56 60 -56 4 0 14
11 22 24 36 59 136 169 234 260 58 54 106 102 106 106 0 12 -650 7 -666 -5z"/>
<path d="M6314 4323 l-91 -4 8 -47 c4 -26 8 -70 8 -97 l1 -51 158 4 c124 3
163 7 187 21 56 32 59 94 6 150 -32 34 -17 33 -277 24z"/>
<path d="M4650 4295 c-12 -31 -12 -55 -4 -119 l7 -46 107 0 108 0 -15 42 c-8
24 -16 65 -18 93 l-3 50 -86 3 c-85 3 -86 2 -96 -23z"/>
</g>
</svg>
